PathFileType  4	(X/Y/Z) C:\Users\antoi\Documents\MyRepositories\mobilecap\ResultsAnalysis
DataRate	CameraRate	NumFrames	NumMarkers	Units	OrigDataRate	OrigDataStartFrame	OrigNumFrames
100.0	100.0	4	51	mm	100.0	831	1328
Frame#	Time	r_knee			r_shank_antsup			r_ankle			r_calc			r_5meta			r_toe			L_knee			L_shank_antsup			L_ankle			L_calc			L_5meta			L_toe			r_sh2			r_sh3			r_sh4			L_sh2			L_sh3			r_thigh1			r_thigh2			r_thigh3			r_thigh4			r_thigh5			L_thigh1			L_thigh2			L_thigh3			L_thigh4			r.ASIS			r.PSIS			L.ASIS			L.PSIS			C7			R_Shoulder			L_Shoulder			R_Sternum			L_Sternum			R_humerus			R_elbow_med			R_elbow_lat			R_forearm			R_wrist_radius			R_wrist_ulna			L_humerus			L_elbow_med			L_elbow_lat			L_forearm			L_wrist_radius			L_wrist_ulna			R_HJC			L_HJC			R_HJC_reg			L_HJC_reg			
		X1	Y1	Z1	X2	Y2	Z2	X3	Y3	Z3	X4	Y4	Z4	X5	Y5	Z5	X6	Y6	Z6	X7	Y7	Z7	X8	Y8	Z8	X9	Y9	Z9	X10	Y10	Z10	X11	Y11	Z11	X12	Y12	Z12	X13	Y13	Z13	X14	Y14	Z14	X15	Y15	Z15	X16	Y16	Z16	X17	Y17	Z17	X18	Y18	Z18	X19	Y19	Z19	X20	Y20	Z20	X21	Y21	Z21	X22	Y22	Z22	X23	Y23	Z23	X24	Y24	Z24	X25	Y25	Z25	X26	Y26	Z26	X27	Y27	Z27	X28	Y28	Z28	X29	Y29	Z29	X30	Y30	Z30	X31	Y31	Z31	X32	Y32	Z32	X33	Y33	Z33	X34	Y34	Z34	X35	Y35	Z35	X36	Y36	Z36	X37	Y37	Z37	X38	Y38	Z38	X39	Y39	Z39	X40	Y40	Z40	X41	Y41	Z41	X42	Y42	Z42	X43	Y43	Z43	X44	Y44	Z44	X45	Y45	Z45	X46	Y46	Z46	X47	Y47	Z47	X48	Y48	Z48	X49	Y49	Z49	X50	Y50	Z50	X51	Y51	Z51	

831	8.30000000	-157.06000	508.77067	-372.58700	-108.33311	387.68777	-381.76397	-287.52803	99.90726	-411.65123	-352.11969	65.21189	-463.12459	-164.67498	39.29708	-346.75258	-120.77570	65.51265	-414.69685	-155.81723	497.45713	-950.26387	-100.01012	394.72871	-936.96315	-286.43002	94.55640	-920.43526	-355.15352	69.79420	-870.64685	-151.58679	35.16705	-952.11267	-119.49534	61.96445	-885.00824	-140.05008	279.36681	-412.34174	-175.71377	394.56415	-343.52232	-199.50876	279.32004	-353.20941	-179.14613	418.27022	-974.72632	-195.74163	297.53498	-981.68873	-367.76236	614.18163	-476.06110	-258.65358	616.39829	-454.09462	-247.96864	595.56166	-390.29935	-386.73659	553.31845	-382.29474	-267.37290	548.44751	-367.66115	-389.10044	596.63423	-877.61586	-255.51171	601.13940	-905.70658	-400.81408	506.55436	-942.21456	-263.57416	504.32966	-961.80898	-493.90069	601.30261	-538.43528	-613.02654	643.36708	-619.43830	-459.48427	587.71054	-775.67387	-611.96866	641.15886	-713.31021	-341.63000	1067.68180	-658.25744	-254.86418	989.14167	-475.27737	-252.90585	996.99479	-825.20126	-220.12214	957.58728	-634.59977	-222.93782	952.72469	-675.92216	-214.64891	846.31172	-389.90941	-233.53624	602.52086	-378.62576	-196.18106	660.66108	-311.54096	-106.96404	754.84580	-414.53306	-37.53073	806.80231	-490.69886	-4.40754	779.37351	-488.90410	-207.58059	862.19830	-926.06093	-217.52455	629.28343	-959.85584	-167.92401	686.40073	-1008.59959	-111.32694	759.82858	-872.74747	-37.20379	803.02424	-797.55698	-1.92074	773.05737	-809.01869	-550.14800	523.38994	-560.46683	-529.09201	503.86083	-771.91697	-547.98992	533.97697	-569.86835	-546.20469	530.24984	-728.28541	
832	8.31000000	-156.28208	508.20641	-372.67242	-107.96282	387.21386	-381.73014	-287.43938	99.85984	-411.76707	-351.93568	65.05463	-463.47308	-164.75707	39.25860	-346.67274	-120.72132	65.47752	-414.52001	-154.80399	496.95988	-949.84231	-99.24860	394.32039	-936.70581	-286.24011	94.40930	-920.20411	-354.98119	69.71507	-870.49530	-151.58042	35.08479	-952.18129	-119.40001	61.74236	-885.07688	-139.71326	278.99662	-412.25111	-175.28721	394.35522	-343.56801	-199.51208	279.28697	-353.05963	-178.42412	417.93647	-974.25701	-195.19748	297.30443	-981.37623	-366.47993	615.10403	-475.71489	-257.51296	616.70805	-453.71693	-246.74319	595.36207	-390.65433	-385.91912	553.94368	-381.94779	-266.50493	548.27459	-367.71166	-387.65681	597.30723	-877.44497	-254.06858	601.07844	-905.61095	-399.86413	506.83616	-941.59878	-262.61765	504.07111	-961.48637	-492.51235	603.17821	-538.23869	-609.97661	644.71006	-619.70893	-457.83367	589.19265	-775.47731	-608.88052	642.55603	-713.29863	-336.22263	1066.48163	-658.15502	-249.23318	987.69775	-475.53532	-247.16982	995.60746	-824.69022	-216.41217	955.70621	-634.39542	-216.00438	951.62453	-674.37300	-208.15562	845.62073	-390.11729	-225.67385	601.77293	-378.43123	-188.61262	660.20684	-311.45188	-100.23624	755.07506	-414.46522	-31.12438	807.51139	-490.56901	2.15675	780.30332	-488.87437	-200.90877	861.98474	-926.02718	-208.65657	629.16138	-960.74457	-159.60269	687.12166	-1009.30842	-103.91939	760.30245	-873.15167	-30.18763	803.96219	-797.85370	5.31350	774.28050	-809.14509	-548.20424	525.07200	-560.30531	-526.76459	505.19855	-771.68578	-546.18215	535.48480	-569.70893	-544.32622	531.83774	-728.16584	
833	8.32000000	-155.40735	507.71065	-372.72830	-107.53225	386.73935	-381.65365	-287.31476	99.87900	-411.87884	-351.66790	64.96005	-463.80456	-164.83324	39.22398	-346.53168	-120.61308	65.36764	-414.19328	-153.74220	496.41778	-949.55316	-98.45433	393.79433	-936.37529	-286.01528	94.35613	-920.16819	-354.84934	69.69180	-870.36450	-151.56253	34.98818	-952.37591	-119.26091	61.45869	-885.09915	-139.35201	278.49277	-412.16467	-174.90595	394.04782	-343.72630	-199.66430	279.50594	-352.72026	-177.71571	417.71218	-973.90918	-194.69690	297.13349	-981.29157	-365.06088	616.02690	-475.49683	-256.05854	617.07522	-453.35052	-245.22140	594.86100	-390.73684	-384.80193	554.44235	-381.90187	-265.50790	548.08983	-367.78816	-385.95595	598.23009	-877.74054	-252.25722	600.92888	-905.64745	-398.80688	507.06095	-940.96167	-261.61384	503.57661	-961.02277	-490.93398	605.00535	-538.25567	-606.64437	646.30044	-619.87523	-456.10998	591.68180	-775.83041	-605.46850	644.31706	-713.50402	-330.82585	1065.39331	-658.03869	-243.63240	986.50220	-475.70276	-241.29660	994.47805	-824.24140	-211.86872	954.10007	-634.19683	-210.67156	950.17814	-674.46073	-201.53663	845.08700	-390.22043	-217.61081	601.30940	-378.14799	-180.81781	660.01031	-311.27914	-93.25779	755.55392	-414.38212	-24.59477	808.54416	-490.40332	8.91804	781.44822	-488.79435	-193.89978	861.94058	-925.84365	-199.38097	629.31718	-961.56383	-150.94608	688.05310	-1009.88251	-96.25327	761.17562	-873.66052	-22.94885	805.22684	-798.13052	12.71054	775.81877	-809.09861	-545.88751	526.73657	-560.73924	-524.18333	507.38346	-772.14066	-544.35082	537.37401	-569.95532	-542.35775	534.01257	-728.62558	
834	8.33000000	-154.46353	507.15282	-372.83505	-107.00102	386.23239	-381.63679	-287.12215	99.78754	-412.13974	-351.37544	64.89881	-464.13199	-164.94663	39.18149	-346.28601	-120.48196	65.17643	-413.82805	-152.63400	495.81971	-949.20506	-97.62660	393.17900	-936.07591	-285.76806	94.37826	-920.29745	-354.67432	69.52301	-870.07999	-151.54748	34.87741	-952.68648	-119.12531	61.13222	-885.16630	-138.84196	277.93413	-412.11302	-174.55678	393.59077	-344.03933	-199.61586	279.41754	-352.66202	-176.96983	417.44124	-973.32065	-194.22445	296.93832	-981.06736	-363.52932	616.91439	-475.26965	-254.46874	617.33805	-452.88510	-243.59019	594.37771	-390.61711	-383.43935	554.66561	-382.22366	-264.30368	547.84098	-367.79786	-384.11053	599.00387	-877.84620	-250.43928	600.64627	-905.87583	-397.52819	507.27286	-940.43383	-260.39591	502.88700	-960.29435	-489.19336	606.87992	-538.35455	-603.04115	648.34899	-620.00853	-454.08680	593.56402	-775.92588	-601.76014	646.43003	-713.72228	-325.37149	1064.56893	-657.94054	-238.01387	985.62869	-475.83017	-235.32904	993.70483	-823.98717	-206.18355	952.92246	-634.10365	-206.75026	948.29168	-675.93955	-194.83584	844.75082	-390.26717	-208.83689	600.69997	-377.67476	-172.79196	660.11358	-311.05296	-86.11859	756.30119	-414.29891	-17.99263	809.84943	-490.34914	15.87988	783.03854	-488.62113	-186.63397	862.18032	-925.60192	-189.94019	629.91756	-962.83342	-141.97817	689.25035	-1010.50615	-88.18240	762.48939	-873.94916	-15.56885	806.73510	-798.03249	20.32362	777.74912	-809.11059	-543.82742	528.67938	-560.95693	-521.85993	509.35968	-772.33308	-542.57891	539.45663	-570.16801	-540.40932	536.20736	-728.86355	
